<?xml version="1.0" encoding="UTF-8"?>
<svg width="640px" height="274px" viewBox="0 0 640 274" version="1.1" xmlns="http://www.w3.org/2000/svg" xmlns:xlink="http://www.w3.org/1999/xlink">
    <!-- Generator: Sketch 58 (84663) - https://sketch.com -->
    <title>LogoOverlay</title>
    <desc>Created with Sketch.</desc>
    <defs>
        <filter x="-6.7%" y="-3.3%" width="112.0%" height="109.0%" filterUnits="objectBoundingBox" id="filter-1">
            <feGaussianBlur stdDeviation="0" in="SourceGraphic"></feGaussianBlur>
        </filter>
        <filter x="-7.8%" y="-8.6%" width="116.9%" height="117.2%" filterUnits="objectBoundingBox" id="filter-2">
            <feGaussianBlur stdDeviation="0" in="SourceGraphic"></feGaussianBlur>
        </filter>
    </defs>
    <g id="LogoOverlay" stroke="none" stroke-width="1" fill="none" fill-rule="evenodd">
        <g id="blue-on-white" transform="translate(214.000000, 53.000000)">
            <path d="M47.5126302,51 L46,51 L70.0645708,0 L71.508445,0 L95.7792835,51 L94.2666534,51 L86.4284789,34.612 L55.2132928,34.612 L47.5126302,51 Z M70.8208859,1.564 L55.900852,33.252 L85.7409197,33.252 L70.8208859,1.564 Z M131.398286,51 L119.228489,30.124 L104.514723,30.124 L104.514723,51 L103.20836,51 L103.20836,0 L120.603607,0 C128.991829,0 135.867421,6.8 135.867421,15.096 C135.867421,23.324 129.129341,29.988 120.809875,30.124 L132.979672,51 L131.398286,51 Z M134.423546,15.096 C134.423546,7.548 128.235514,1.36 120.603607,1.292 L104.514723,1.292 L104.514723,28.832 L120.603607,28.832 C128.166758,28.764 134.423546,22.712 134.423546,15.096 Z M143.296497,0 L184,0 L184,1.292 L164.267052,1.292 L164.267052,51 L162.96069,51 L162.96069,1.292 L143.296497,1.292 L143.296497,0 Z" id="ART" fill="#FFFFFF" fill-rule="nonzero"></path>
            <g id="blue" transform="translate(0.000000, 15.000000)" stroke="#FFFFFF" stroke-width="2">
                <path d="M38.8552243,13.2201605 C35.5294424,13.4500254 35.3208806,20.1393484 41.7395576,18.0932256 C43.2970397,17.596737 44.5817347,16.3532261 45.1627904,15.5179193 C45.7438461,14.6826125 46.3653274,12.8435889 46.3653274,11.4339344 C46.3653274,10.5141185 46.3758876,8.71262043 44.4169414,6.58234207 C42.8423414,4.87002541 40.0885752,4.1738869 37.6362821,4.44602832" id="Path"></path>
                <path d="M37.6362821,4.44602832 C21.824863,5.72791457 20.7918671,21.901753 24.8245786,33.7161496" id="Path-2"></path>
                <path d="M24.8245786,33.7730127 C30.4919021,47.2633452 48.3917735,55.4080832 62.5642788,51.121061" id="Path-3"></path>
                <path d="M30.7417267,99.3498956 C27.9442638,102.937348 24.8245786,107.745647 21.0552689,110.572243 C17.9835613,112.875708 14.6258576,114.335959 10.3503656,113.740111 C1.94152296,112.568224 -2.71767669,100.603654 1.697382,89.8643121 C4.6606748,82.6562957 10.0810135,78.4757161 16.5549451,75.7045346" id="Path-5"></path>
                <path d="M16.5549451,75.7045346 C34.3434445,69.5364158 52.5630216,89.261265 74.3360313,97.6533102 C88.9814007,103.298125 101.592656,99.687014 106.462198,96.3861167 C112.215967,93.3035863 118.87009,87.0493713 126.424567,77.6234717 C133.979045,68.1975722 144.720509,50.6451178 158.648959,24.9661086 C169.051942,4.84401548 178.338148,-3.11462924 186.507578,1.09017443 C190.340727,3.06309573 190.734725,7.12444488 189.586068,9.99960947 C189.151788,11.0431496 188.398486,12.1639902 187.32616,13.3621311 C184.083728,16.9849965 179.672438,16.7653608 177.055785,14.1725031 C173.177832,10.3298153 178.784792,5.71715521 180.840602,9.1263881 C181.087446,9.53573959 181.194942,10.143847 181.156523,10.799126" id="Path-7"></path>
                <path d="M62.5642788,51.121061 C70.7661255,48.6806628 75.5080643,44.9186861 76.7900952,39.8351307 C78.0721261,34.7515754 76.7451371,32.5234675 72.8091282,33.150807 C70.0662008,33.6536065 67.3939736,37.7833584 64.7924467,45.5400625 C62.1909198,53.2967667 54.9934934,65.0693567 43.2001677,80.8578324 L30.7417267,99.3498956" id="Path-4"></path>
                <path d="M76.8085987,63.7294365 L69.1124257,74.6095799 C66.2152733,79.3773392 67.7258447,81.5486877 73.6441398,81.1236254 C76.8906582,80.8904548 79.0558455,79.2524085 82.1905847,75.5252206" id="Path-6" filter="url(#filter-1)"></path>
                <path d="M87.146385,53.3876355 C85.6655253,54.1466562 84.5658383,53.9667751 83.8473239,52.847992 C83.1288095,51.729209 83.1288095,50.5266702 83.8473239,49.2403758 C84.5351579,48.0866162 85.7391891,47.5097364 87.4594174,47.5097364 C88.729929,47.5097364 90.0926377,48.359121 90.7061815,49.2403758 C91.3197254,50.1216305 91.6038972,51.3139275 91.493533,52.847992 C91.3197254,55.2639199 90.2251057,56.6100645 89.8718341,57.0130725 C89.3872332,57.5658995 87.7747407,59.1198985 84.8742733,59.1198985 C82.9406283,59.1198985 81.4869902,58.2897774 80.513359,56.6295352" id="Path-9" filter="url(#filter-2)"></path>
                <path d="M110.142634,58.9687137 C112.143228,63.2412813 111.548539,66.2917231 108.358566,68.1200391 C104.312869,70.4388091 100.258403,67.389772 99.0409346,63.7294365 C97.3143808,58.5385298 98.5146278,54.0626601 102.641676,50.3018272 C105.181961,48.733438 107.68228,47.9492434 110.142634,47.9492434 C112.632582,47.9492434 117.65435,48.6537242 120.139043,54.2818267 C123.338893,61.5298391 120.53195,69.2362307 111.718213,77.4010016 C88.335384,98.9203401 75.7468972,114.038037 73.9527527,122.754093 C72.1586082,131.470148 73.7500994,138.356957 78.7272263,143.414519 C82.0632523,146.488756 85.6479753,148.298541 89.4813951,148.843876 C95.245576,149.663876 99.4615548,148.917285 103.178019,147.178246 C106.255592,145.738162 108.197303,143.681686 109.35049,141.742615 C110.627006,139.596168 110.627006,138.238284 110.692772,137.430223 C110.795566,136.16719 110.142634,134.60041 108.724668,134.60041 C108.141217,134.60041 107.201907,135.427301 107.451739,136.529189 C107.546619,136.947661 107.811432,137.430063 108.358566,137.091193" id="g"></path>
                <path d="M131.609279,70.5956812 C135.174849,66.0965909 138.199181,63.8470457 140.682275,63.8470457 C143.165368,63.8470457 143.841549,65.0934824 142.710817,67.5863558 C139.177118,73.1568328 137.806842,76.273957 138.59999,76.9377283 C139.393138,77.6014996 140.563534,77.7092664 142.111179,77.2610288 C144.135585,76.471854 147.189255,74.544512 151.272192,71.4790028 C155.355128,68.4134935 160.539422,63.3303026 166.825073,56.2294301" id="h"></path>
                <path d="M190.349908,30.0276522 C189.367883,29.7037487 188.603644,30.1225694 188.05719,31.2841142 C187.578136,32.6444701 187.862047,33.6878197 188.908924,34.4141629 C189.9558,35.1405062 191.167883,35.1016267 192.545172,34.2975244 C194.139854,33.2896443 194.775144,31.9282977 194.451042,30.2134846 C194.126939,28.4986714 192.906774,27.4448032 190.790547,27.0518798 C188.130346,26.5244504 185.585933,28.0371864 183.157306,31.5900878 C180.72868,35.1429892 178.363224,38.8379484 176.060939,42.6749654 L166.825073,56.2294301 L149.019911,88.4742787 C144.316252,98.2694343 145.820879,103.404377 153.533791,103.879106 C158.114588,104.161054 163.031768,99.9225389 166.825073,97.069338 C168.554186,95.7687557 171.152739,93.9497225 174.620733,91.6122385 C182.185027,87.8334456 188.551207,87.0753174 193.719273,89.337854 C198.887338,91.6003906 202.979541,95.3556574 205.995883,100.603654 C210.444287,110.770548 210.444287,121.959203 205.995883,134.169619 C203.501375,141.016788 199.688303,145.66891 195.072065,148.139911 C190.981884,150.329323 185.968864,151.04102 180.033005,150.275003 C171.227717,148.313185 167.216639,143.441459 167.999769,135.659823 C168.361531,132.065145 171.274494,128.143926 175.591289,127.906132 C178.469153,127.747603 180.464193,128.916719 181.576411,131.41348 C182.11062,133.865511 181.596151,135.600347 180.033005,136.617988 C178.469858,137.635628 177.145836,137.31624 176.060939,135.659823" id="t"></path>
                <path d="M131.609279,42.9950744 C135.221572,49.7657427 143.11412,52.0606469 155.286922,49.879787 C167.459724,47.6989271 182.013776,45.4040229 198.949077,42.9950744 C207.740882,41.8873963 211.201918,43.9542119 209.332186,49.1955212 C208.227476,52.2922902 202.920029,51.6121591 202.920029,48.8533883 C202.920029,47.0937481 203.670806,46.189687 205.172359,46.1412049" id="Path-10"></path>
            </g>
            <g id="&amp;" transform="translate(16.000000, 61.000000)" stroke="#FFFFFF">
                <path d="M5.10859802,4.27605556 C5.066364,2.8507037 5.02412997,1.42535185 4.98189594,0" id="Path-11"></path>
                <path d="M5.10859802,19.9620556 C5.066364,18.5367037 5.02412997,17.1113519 4.98189594,15.686" id="Path-11"></path>
                <path d="M8.47530581,4.092 L3.03348066,4.092 C1.1251288,4.29628871 0.170952865,5.26245538 0.170952865,6.9905 C0.170952865,8.71854462 1.1251288,9.68471129 3.03348066,9.889 L8.47530581,9.889" id="Path-13"></path>
                <path d="M8.47530581,9.889 L3.03348066,9.889 C1.1251288,10.0932887 0.170952865,11.0594554 0.170952865,12.7875 C0.170952865,14.5155446 1.1251288,15.4817113 3.03348066,15.686 L8.47530581,15.686" id="Path-13"></path>
            </g>
            <path d="M41.6882844,130.801333 L41.5057912,130.801333 C41.5057912,129.905333 40.7662133,129.186667 39.8441422,129.186667 C38.9220711,129.186667 38.1824932,129.905333 38.1824932,130.801333 C38.1824932,131.697333 38.9220711,132.416 39.8441422,132.416 C40.8622624,132.416 41.6882844,133.218667 41.6882844,134.208 C41.6882844,135.197333 40.8622624,136 39.8441422,136 C38.826022,136 38,135.188 38,134.198667 L38.1824932,134.198667 C38.1824932,135.094667 38.9220711,135.822667 39.8441422,135.822667 C40.7662133,135.822667 41.5057912,135.104 41.5057912,134.208 C41.5057912,133.312 40.7662133,132.584 39.8441422,132.584 C38.826022,132.584 38,131.781333 38,130.792 C38,129.802667 38.826022,129 39.8441422,129 C40.8622624,129 41.6882844,129.812 41.6882844,130.801333 Z M58.6992615,132.5 C58.6992615,130.558667 60.303281,129 62.3011017,129 C64.2989224,129 65.9125469,130.558667 65.9125469,132.5 C65.9125469,134.441333 64.2989224,136 62.3011017,136 C60.303281,136 58.6992615,134.441333 58.6992615,132.5 Z M58.8817547,132.5 C58.8817547,134.348 60.3993301,135.822667 62.3011017,135.822667 C64.2028734,135.822667 65.7300536,134.348 65.7300536,132.5 C65.7300536,130.652 64.2028734,129.177333 62.3011017,129.177333 C60.3993301,129.177333 58.8817547,130.652 58.8817547,132.5 Z M91.926591,134.833333 L92.0610597,134.973333 C91.407926,135.608 90.5050647,136 89.5061544,136 C87.5179386,136 85.9043141,134.432 85.9043141,132.5 C85.9043141,130.568 87.5179386,129 89.5061544,129 C90.4954598,129 91.3887162,129.382667 92.0418499,130.008 L91.9073812,130.129333 C91.2926671,129.541333 90.4474353,129.177333 89.5061544,129.177333 C87.6139876,129.177333 86.0868074,130.661333 86.0868074,132.5 C86.0868074,134.338667 87.6139876,135.822667 89.5061544,135.822667 C90.4474353,135.822667 91.3118769,135.44 91.926591,134.833333 Z M109.917269,136 L109.734775,136 L109.734775,129 L109.917269,129 L109.917269,136 Z M127.975181,136 L127.975181,129 L132.460672,129 L132.460672,129.186667 L128.157674,129.186667 L128.157674,132.322667 L132.16292,132.322667 L132.16292,132.509333 L128.157674,132.509333 L128.157674,135.813333 L132.460672,135.813333 L132.460672,136 L127.975181,136 Z M149.41402,129 L155.100125,129 L155.100125,129.177333 L152.343517,129.177333 L152.343517,136 L152.161023,136 L152.161023,129.177333 L149.41402,129.177333 L149.41402,129 Z M174.156947,136 L174.156947,133.414667 L171.496388,129 L171.726906,129 L174.243392,133.237333 L176.769482,129 L177,129 L174.339441,133.414667 L174.339441,136 L174.156947,136 Z" id="society" stroke="#FFFFFF" fill="#FFFFFF" fill-rule="nonzero"></path>
        </g>
    </g>
</svg>