<?xml version="1.0" encoding="UTF-8"?>
<svg width="640px" height="360px" viewBox="0 0 640 360" version="1.1" xmlns="http://www.w3.org/2000/svg" xmlns:xlink="http://www.w3.org/1999/xlink">
    <!-- Generator: Sketch 57 (83077) - https://sketch.com -->
    <title>photo@1x</title>
    <desc>Created with Sketch.</desc>
    <defs>
        <filter x="-6.4%" y="-3.1%" width="111.4%" height="108.6%" filterUnits="objectBoundingBox" id="filter-1">
            <feGaussianBlur stdDeviation="0" in="SourceGraphic"></feGaussianBlur>
        </filter>
        <filter x="-7.5%" y="-8.2%" width="116.1%" height="116.4%" filterUnits="objectBoundingBox" id="filter-2">
            <feGaussianBlur stdDeviation="0" in="SourceGraphic"></feGaussianBlur>
        </filter>
    </defs>
    <g id="photo" stroke="none" stroke-width="1" fill="none" fill-rule="evenodd">
        <g id="blue-on-white" transform="translate(209.000000, 92.000000)">
            <path d="M50.5783967,54 L49,54 L74.1108565,0 L75.6175078,0 L100.9436,54 L99.3652035,54 L91.1862389,36.648 L58.6138708,36.648 L50.5783967,54 Z M74.9000548,1.656 L59.3313238,35.208 L90.4687858,35.208 L74.9000548,1.656 Z M138.111255,54 L125.412336,31.896 L110.058841,31.896 L110.058841,54 L108.69568,54 L108.69568,0 L126.847242,0 C135.600169,0 142.7747,7.2 142.7747,15.984 C142.7747,24.696 135.74366,31.752 127.062478,31.896 L139.761397,54 L138.111255,54 Z M141.268048,15.984 C141.268048,7.992 134.810971,1.44 126.847242,1.368 L110.058841,1.368 L110.058841,30.528 L126.847242,30.528 C134.739226,30.456 141.268048,24.048 141.268048,15.984 Z M150.52678,0 L193,0 L193,1.368 L172.409098,1.368 L172.409098,54 L171.045937,54 L171.045937,1.368 L150.52678,1.368 L150.52678,0 Z" id="ART" fill="#FFFFFF" fill-rule="nonzero"></path>
            <g id="blue" transform="translate(0.000000, 15.000000)" stroke="#FFFFFF" stroke-width="2">
                <path d="M40.890498,13.9205664 C37.3905084,14.1626095 37.1710219,21.2063338 43.9259153,19.051807 C45.5649799,18.5290144 46.9169684,17.2196222 47.5284603,16.3400607 C48.1399523,15.4604993 48.7939874,13.5240439 48.7939874,12.0397057 C48.7939874,11.0711579 48.8051007,9.17421621 46.7435431,6.93107543 C45.086464,5.12804 42.1884529,4.39501998 39.6077064,4.68157949" id="Path"></path>
                <path d="M39.6077064,4.68157949 C22.9680701,6.03138025 21.8809649,23.0621107 26.1249137,35.5024357" id="Path-2"></path>
                <path d="M26.1249137,35.5623114 C32.089097,49.7673635 50.9265806,58.3436108 65.8414553,53.8294615" id="Path-3"></path>
                <path d="M32.3520076,104.613466 C29.408011,108.390982 26.1249137,113.454026 22.1581639,116.430375 C18.9255574,118.855878 15.391974,120.393493 10.8925276,119.766077 C2.04322179,118.532103 -2.86003118,105.933649 1.78629249,94.6253353 C4.90480538,87.0354371 10.6090666,82.6333699 17.4221088,79.7153709" id="Path-5"></path>
                <path d="M17.4221088,79.7153709 C36.1423869,73.2204643 55.3163227,93.9903387 78.2298234,102.826996 C93.6423312,108.770873 106.914176,104.968445 112.038789,101.492666 C118.093946,98.2468226 125.096619,91.6612585 133.046807,81.7359736 C140.996995,71.8106886 152.301107,53.3283029 166.959143,26.2888163 C177.907044,5.10065207 187.67967,-3.27964271 196.277022,1.14793202 C200.310956,3.22537895 200.725591,7.50189891 199.516766,10.5293901 C199.059739,11.6282171 198.266978,12.80844 197.138483,14.0700586 C193.726209,17.8848639 189.083852,17.6535918 186.330136,14.9233642 C182.249052,10.8770903 188.14971,6.02005085 190.313204,9.60990535 C190.572978,10.0409443 190.686106,10.6812693 190.645674,11.3712651" id="Path-7"></path>
                <path d="M65.8414553,53.8294615 C74.4729225,51.2597708 79.4632486,47.298484 80.8124335,41.9456012 C82.1616185,36.5927184 80.7651205,34.2465651 76.6229396,34.9071412 C73.7363351,35.4365791 70.9241341,39.7851257 68.1863368,47.9527811 C65.4485394,56.1204365 57.874105,68.5167398 45.4630336,85.141691 L32.3520076,104.613466" id="Path-4"></path>
                <path d="M80.8319062,67.1058304 L72.7326003,78.5624054 C69.6836924,83.5827612 71.2733889,85.869148 77.50169,85.4215659 C80.9182641,85.1760418 83.196866,83.4512116 86.4958058,79.5265568" id="Path-6" filter="url(#filter-1)"></path>
                <path d="M91.7111957,56.2161195 C90.1527671,57.0153532 88.9954774,56.825942 88.2393266,55.6478856 C87.4831757,54.4698293 87.4831757,53.2035799 88.2393266,51.8491374 C88.96319,50.6342515 90.2302895,50.0268085 92.040625,50.0268085 C93.3776872,50.0268085 94.8117758,50.9211937 95.4574577,51.8491374 C96.1031395,52.7770811 96.4021966,54.0325462 96.2860514,55.6478856 C96.1031395,58.1918097 94.9511827,59.6092732 94.5794064,60.0336327 C94.0694216,60.6157485 92.3724652,62.2520785 89.3200685,62.2520785 C87.2851374,62.2520785 85.7553564,61.3779775 84.7307254,59.6297755" id="Path-9" filter="url(#filter-2)"></path>
                <path d="M115.91201,62.0928839 C118.017397,66.5918127 117.391557,69.8038674 114.034491,71.7290478 C109.776876,74.1706665 105.510034,70.960091 104.228793,67.1058304 C102.411801,61.6399089 103.674918,56.926907 108.018144,52.9668247 C110.691492,51.315342 113.322781,50.4896006 115.91201,50.4896006 C118.532384,50.4896006 123.817197,51.231405 126.432041,57.157685 C129.799502,64.7896981 126.845528,72.9043754 117.57012,81.5017169 C92.9624756,104.161153 79.7145918,120.079787 77.8264683,129.257621 C75.9383449,138.435454 77.6131999,145.687127 82.8510334,151.012639 C86.3618037,154.249749 90.1342978,156.155418 94.1685158,156.729644 C100.23463,157.593088 104.671446,156.806943 108.582582,154.975769 C111.821361,153.45939 113.864781,151.29396 115.078373,149.252158 C116.421754,146.991991 116.421754,145.562167 116.490965,144.711294 C116.599143,143.381345 115.91201,141.731558 114.419769,141.731558 C113.805757,141.731558 112.817245,142.602257 113.080163,143.762523 C113.180014,144.203166 113.458697,144.711125 114.034491,144.354302" id="g"></path>
                <path d="M138.503098,74.3358497 C142.255437,69.598397 145.438186,67.2296707 148.051347,67.2296707 C150.664507,67.2296707 151.376107,68.5421437 150.186146,71.1670899 C146.467348,77.0326915 145.025295,80.3149613 145.859989,81.0138993 C146.694683,81.7128373 147.926386,81.8263136 149.555098,81.3543283 C151.685544,80.523343 154.899169,78.4938901 159.195973,75.2659698 C163.492778,72.0380495 168.94863,66.6855504 175.56353,59.2084727" id="h"></path>
                <path d="M200.320617,31.6185212 C199.287153,31.2774572 198.482883,31.7184671 197.907805,32.9415507 C197.403657,34.3739784 197.70244,35.4726048 198.804153,36.2374299 C199.905866,37.0022549 201.181439,36.9613155 202.630872,36.1146118 C204.309085,35.0533341 204.977652,33.6198632 204.636572,31.814199 C204.295493,30.0085348 203.011415,28.8988325 200.784338,28.485092 C197.984793,27.9297193 195.307101,29.5226003 192.751261,33.2637349 C190.19542,37.0048694 187.70606,40.895588 185.283178,44.9358907 L175.56353,59.2084727 L156.825716,93.1616577 C151.875675,103.475762 153.459115,108.882754 161.576037,109.382635 C166.39678,109.679521 171.571528,105.216448 175.56353,102.212084 C177.383215,100.842597 180.117883,98.9271912 183.767533,96.465867 C191.728053,92.4868731 198.427699,91.6885793 203.866473,94.0709854 C209.305246,96.4533915 213.611803,100.407613 216.786143,105.933649 C221.467559,116.639186 221.467559,128.420617 216.786143,141.277943 C214.160971,148.487876 210.148166,153.386468 205.290126,155.988383 C200.985697,158.29379 195.71009,159.043193 189.463305,158.236593 C180.196788,156.170837 175.975605,151.041006 176.799757,142.847099 C177.180469,139.061974 180.246015,134.933008 184.788928,134.682616 C187.817537,134.515688 189.91708,135.746744 191.087556,138.375784 C191.649748,140.957724 191.108331,142.784472 189.463305,143.856027 C187.818279,144.927582 186.424904,144.591272 185.283178,142.847099" id="t"></path>
                <path d="M138.503098,45.2729591 C142.304607,52.4023383 150.610574,54.8188269 163.420999,52.5224247 C176.231424,50.2260226 191.54783,47.809534 209.37022,45.2729591 C218.622547,44.1065961 222.264875,46.2829119 220.297205,51.8019064 C219.134629,55.0627426 213.549174,54.3465782 213.549174,51.4416473 C213.549174,49.5887812 214.339277,48.6368227 215.919482,48.585772" id="Path-10"></path>
            </g>
            <g id="&amp;" transform="translate(17.000000, 64.000000)" stroke="#FFFFFF" stroke-width="2">
                <path d="M5.10859802,4.48985833 C5.066364,2.99323889 5.02412997,1.49661944 4.98189594,0" id="Path-11"></path>
                <path d="M5.10859802,20.9601583 C5.066364,19.4635389 5.02412997,17.9669194 4.98189594,16.4703" id="Path-11"></path>
                <path d="M8.47530581,4.2966 L3.03348066,4.2966 C1.1251288,4.51110315 0.170952865,5.52557815 0.170952865,7.340025 C0.170952865,9.15447185 1.1251288,10.1689469 3.03348066,10.38345 L8.47530581,10.38345" id="Path-13"></path>
                <path d="M8.47530581,10.38345 L3.03348066,10.38345 C1.1251288,10.5979531 0.170952865,11.6124281 0.170952865,13.426875 C0.170952865,15.2413219 1.1251288,16.2557969 3.03348066,16.4703 L8.47530581,16.4703" id="Path-13"></path>
            </g>
            <path d="M47.8510028,136.058667 L47.6604584,136.058667 C47.6604584,135.034667 46.8882521,134.213333 45.9255014,134.213333 C44.9627507,134.213333 44.1905444,135.034667 44.1905444,136.058667 C44.1905444,137.082667 44.9627507,137.904 45.9255014,137.904 C46.9885386,137.904 47.8510028,138.821333 47.8510028,139.952 C47.8510028,141.082667 46.9885386,142 45.9255014,142 C44.8624642,142 44,141.072 44,139.941333 L44.1905444,139.941333 C44.1905444,140.965333 44.9627507,141.797333 45.9255014,141.797333 C46.8882521,141.797333 47.6604584,140.976 47.6604584,139.952 C47.6604584,138.928 46.8882521,138.096 45.9255014,138.096 C44.8624642,138.096 44,137.178667 44,136.048 C44,134.917333 44.8624642,134 45.9255014,134 C46.9885386,134 47.8510028,134.928 47.8510028,136.058667 Z M65.6124642,138 C65.6124642,135.781333 67.2872493,134 69.3732091,134 C71.459169,134 73.1439827,135.781333 73.1439827,138 C73.1439827,140.218667 71.459169,142 69.3732091,142 C67.2872493,142 65.6124642,140.218667 65.6124642,138 Z M65.8030086,138 C65.8030086,140.112 67.3875358,141.797333 69.3732091,141.797333 C71.3588825,141.797333 72.9534383,140.112 72.9534383,138 C72.9534383,135.888 71.3588825,134.202667 69.3732091,134.202667 C67.3875358,134.202667 65.8030086,135.888 65.8030086,138 Z M97.1733524,140.666667 L97.3137535,140.826667 C96.6318051,141.552 95.6891117,142 94.6461318,142 C92.5702006,142 90.8853868,140.208 90.8853868,138 C90.8853868,135.792 92.5702006,134 94.6461318,134 C95.679083,134 96.6117478,134.437333 97.2936962,135.152 L97.1532951,135.290667 C96.5114613,134.618667 95.6289398,134.202667 94.6461318,134.202667 C92.6704871,134.202667 91.0759312,135.898667 91.0759312,138 C91.0759312,140.101333 92.6704871,141.797333 94.6461318,141.797333 C95.6289398,141.797333 96.5315186,141.36 97.1733524,140.666667 Z M115.957736,142 L115.767192,142 L115.767192,134 L115.957736,134 L115.957736,142 Z M134.812321,142 L134.812321,134 L139.495702,134 L139.495702,134.213333 L135.002865,134.213333 L135.002865,137.797333 L139.184814,137.797333 L139.184814,138.010667 L135.002865,138.010667 L135.002865,141.786667 L139.495702,141.786667 L139.495702,142 L134.812321,142 Z M157.196991,134 L163.133954,134 L163.133954,134.202667 L160.255731,134.202667 L160.255731,142 L160.065186,142 L160.065186,134.202667 L157.196991,134.202667 L157.196991,134 Z M183.031519,142 L183.031519,139.045333 L180.253582,134 L180.494269,134 L183.121777,138.842667 L185.759312,134 L186,134 L183.222063,139.045333 L183.222063,142 L183.031519,142 Z" id="society" stroke="#FFFFFF" fill="#FFFFFF" fill-rule="nonzero"></path>
        </g>
    </g>
</svg>